<?xml version="1.0" encoding="utf-8"?>
<!-- Generator: Adobe Illustrator 27.0.1, SVG Export Plug-In . SVG Version: 6.00 Build 0)  -->
<svg version="1.1" id="Ebene_1" xmlns="http://www.w3.org/2000/svg" xmlns:xlink="http://www.w3.org/1999/xlink" x="0px" y="0px"
	 viewBox="0 0 1000 1000" style="enable-background:new 0 0 1000 1000;" xml:space="preserve">
<style type="text/css">

	.st1{fill:#22A26C;}
	.st2{fill:#5F2C85;}
</style>
<g>
	<g>
		<path class="st1" d="M70.51,781.65c1.78-6.15,308.84-538.35,315.59-547.03c67.95,117.58,135.71,234.83,203.68,352.44
			c-1.04,2.22-1.84,4.41-3.04,6.37c-9.13,14.88-14.96,31.06-18.46,48.05c-3.55,17.2-2.16,34.26,2.01,51.31
			c3.86,15.76,9.82,30.55,19.7,43.3c14.95,19.3,33.53,34.19,56.72,42.77c1.36,0.5,2.63,1.24,3.94,1.87
			c-0.03,0.46-0.05,0.93-0.08,1.39c-3.94,0.28-7.88,0.8-11.82,0.8c-48.02,0.05-96.05,0.01-144.07,0.01
			c-118.33,0-236.65,0.02-354.97,0c-16.01,0-32.02-0.09-48.02-0.3C84.8,782.52,77.92,782,70.51,781.65z M293.17,718.71
			c0.26,0.57,0.52,1.13,0.78,1.7c61.03,0.27,122.07,0.58,183.29,0.21c-1.53-7.01-87.31-156.76-92.22-161.06
			C354.35,612.68,323.76,665.69,293.17,718.71z"/>
		<path class="st2" d="M582.03,316.14c2.62,8.7,4.42,16.48,7.29,23.84c6.03,15.44,14.1,29.3,27.82,39.79
			c14.84,11.33,30.17,21.58,47.01,29.59c1.67,0.79,3.25,1.76,4.58,3.81c-8.33,0-16.66-0.12-24.99,0.03
			c-14.92,0.25-29.9-0.1-44.72,1.25c-11.76,1.06-23.34,4.21-34.97,6.6c-1.78,0.36-3.38,1.58-5.03,2.38
			c-7.31-7.52-100.16-167.34-110.23-189.85c7.11-0.3,13.93-0.84,20.76-0.84c74.42-0.04,148.85,0.2,223.27-0.06
			c45.22-0.16,87.11,11.35,125.83,34.41c32.12,19.13,57.78,44.75,77.62,76.59c12.88,20.67,23.88,42.07,30.94,65.33
			c11.71,38.59,17.3,78.03,14.72,118.41c-2.34,36.67-10,72.22-23.19,106.52c-13.7,35.64-34.82,66.35-62.99,92.04
			c-31.03,28.3-67.28,46.06-108.72,53.83c-29.47,5.52-57.37,1.82-83.61-11.97c-29.9-15.71-50.04-40.12-58.82-72.95
			c-10.81-40.4-1.8-77.33,23.1-110.01c20.36-26.73,47.97-42.03,81.7-46.29c18.04-2.28,35.84-0.19,53.72,0.91
			c28.56,1.77,50.74-16.64,54.87-41.59c0.59-3.58-0.55-7.69-1.74-11.27c-4.51-13.46-12.33-25.22-20.61-36.51
			c-13.1-17.85-28.28-33.82-46.23-46.99c-27.68-20.32-55.52-40.44-82.95-61.1c-14.17-10.67-29.41-18.81-46.46-23.53
			C608.01,315.17,595.83,314.58,582.03,316.14z"/>
		<path class="st2" d="M760.96,469.15c-8.74,3.89-18.44,1.78-24.18-6.07c-4.87-6.66-7.64-14.44-9.14-22.57
			c-0.34-1.83-0.05-3.78-0.05-6.09c1.59,0.25,2.73,0.16,3.58,0.6c6.69,3.49,13.41,6.96,19.98,10.68
			C760.51,451.01,763.43,458.22,760.96,469.15z"/>
		<path class="st0" d="M293.17,718.71c30.59-53.01,61.19-106.02,91.84-159.15c4.91,4.31,90.69,154.05,92.22,161.06
			c-61.22,0.36-122.25,0.06-183.29-0.21C293.69,719.84,293.43,719.27,293.17,718.71z"/>
	</g>
</g>
</svg>
